<?xml version="1.0" standalone="no"?>
<!DOCTYPE svg PUBLIC "-//W3C//DTD SVG 20010904//EN"
 "http://www.w3.org/TR/2001/REC-SVG-20010904/DTD/svg10.dtd">
<svg version="1.0" xmlns="http://www.w3.org/2000/svg"
 width="800.000000pt" height="800.000000pt" viewBox="0 0 800.000000 800.000000"
 preserveAspectRatio="xMidYMid meet">
<metadata>
Created by potrace 1.11, written by Peter Selinger 2001-2013
</metadata>
<g transform="translate(0.000000,800.000000) scale(0.100000,-0.100000)"
fill="#000000" stroke="none">
<path d="M4141 7575 c-4 -5 -18 -35 -31 -65 -53 -121 -144 -288 -212 -387 -64
-94 -196 -240 -272 -302 -92 -74 -247 -157 -366 -196 -30 -10 -58 -19 -61 -21
-4 -2 20 -81 52 -175 33 -94 59 -179 59 -187 0 -13 -57 -180 -80 -237 -9 -21
-68 -186 -105 -295 -13 -36 -68 -193 -125 -350 -211 -592 -302 -846 -317 -890
-8 -25 -19 -53 -24 -62 -5 -10 -9 -23 -9 -29 0 -6 -6 -25 -14 -42 -8 -18 -23
-59 -34 -92 -20 -58 -105 -298 -198 -555 -25 -69 -47 -129 -48 -135 -2 -5 -6
-17 -9 -25 -3 -8 -54 -150 -112 -315 -58 -165 -123 -347 -144 -405 -117 -319
-236 -644 -262 -710 -15 -41 -47 -124 -70 -185 -251 -660 -415 -981 -594
-1161 -157 -158 -326 -221 -705 -260 -36 -4 -72 -8 -80 -10 -8 -1 -22 -3 -31
-3 -13 -1 -22 -13 -47 -63 -2 -5 550 -8 1227 -8 l1231 0 -17 35 c-11 22 -24
35 -37 36 -59 4 -95 7 -136 12 -25 4 -72 9 -105 12 -33 3 -73 8 -90 10 -105
13 -135 17 -180 25 -27 5 -65 12 -82 15 -315 52 -454 171 -457 390 -1 79 9
199 18 213 2 4 7 25 10 47 7 45 48 200 76 290 87 279 223 681 341 1013 45 125
101 283 126 352 24 69 51 143 59 165 8 22 34 96 58 165 24 69 52 147 63 175
l19 50 908 0 c499 0 911 -2 916 -5 4 -3 98 -282 210 -620 111 -338 226 -687
255 -775 220 -667 265 -812 282 -920 3 -16 9 -50 13 -75 5 -25 8 -90 7 -145
-2 -85 -7 -109 -30 -159 -15 -32 -44 -74 -64 -93 -40 -36 -122 -79 -166 -87
-15 -2 -30 -7 -35 -9 -14 -10 -132 -23 -272 -32 -225 -14 -230 -16 -243 -68
-5 -16 83 -17 1743 -17 l1748 0 -11 35 c-9 30 -15 35 -41 36 -17 1 -40 3 -51
4 -11 1 -69 5 -130 9 -234 14 -317 30 -430 81 -249 114 -449 453 -712 1210
-43 122 -273 797 -313 915 -16 47 -85 252 -155 455 -69 204 -139 408 -155 455
-15 47 -85 252 -155 455 -132 386 -135 395 -264 775 -44 129 -134 395 -201
590 -67 195 -139 407 -160 470 -38 111 -249 731 -390 1145 -37 110 -93 274
-124 364 -31 90 -58 167 -61 170 -11 10 -196 7 -204 -4z m-712 -1643 c25 -75
104 -317 177 -537 210 -638 509 -1547 562 -1710 l49 -150 -433 -3 c-238 -1
-630 -1 -872 0 l-440 3 80 225 c120 340 244 689 298 840 68 188 199 560 277
780 35 102 68 194 73 205 5 11 19 49 30 85 12 36 26 74 30 85 7 18 28 76 91
253 12 34 24 62 28 62 3 0 26 -62 50 -138z"/>
</g>
</svg>
